<?xml version="1.0" encoding="utf-8"?>
<svg xmlns="http://www.w3.org/2000/svg"
	xmlns:xlink="http://www.w3.org/1999/xlink"
	width="18px" height="13px" viewBox="0 0 18 13">
<path fillRule="evenodd" d="M 17.5 2.49C 17.5 2.49 7.66 12.34 7.66 12.34 7.41 12.58 7.01 12.58 6.76 12.34 6.76 12.34 6.56 12.14 6.56 12.14 6.56 12.14 6.56 12.14 6.56 12.14 6.56 12.14 6.35 11.92 6.35 11.92 6.35 11.92 5.42 10.99 5.42 10.99 5.41 10.99 5.41 10.98 5.41 10.97 5.41 10.97 1.15 6.68 1.15 6.68 0.9 6.44 0.9 6.04 1.15 5.79 1.15 5.79 2.49 4.45 2.49 4.45 2.74 4.2 3.14 4.2 3.39 4.45 3.39 4.45 7.21 8.3 7.21 8.3 7.21 8.3 15.26 0.25 15.26 0.25 15.51 0.01 15.91 0.01 16.16 0.25 16.16 0.25 17.5 1.6 17.5 1.6 17.75 1.84 17.75 2.24 17.5 2.49Z" fill="rgb(51,159,217)"/></svg>