<?xml version="1.0" encoding="utf-8"?>
<svg xmlns="http://www.w3.org/2000/svg"
	xmlns:xlink="http://www.w3.org/1999/xlink"
	width="20px" height="15px" viewBox="0 0 20 15">
<path fillRule="evenodd" d="M 19.57 3.24C 19.57 3.24 8.49 14.31 8.49 14.31 8.21 14.59 7.76 14.59 7.49 14.31 7.49 14.31 7.26 14.09 7.26 14.09 7.26 14.09 7.26 14.09 7.26 14.09 7.26 14.09 7.02 13.85 7.02 13.85 7.02 13.85 5.98 12.8 5.98 12.8 5.97 12.79 5.97 12.79 5.96 12.78 5.96 12.78 1.17 7.95 1.17 7.95 0.89 7.68 0.89 7.23 1.17 6.95 1.17 6.95 2.68 5.44 2.68 5.44 2.96 5.16 3.41 5.16 3.69 5.44 3.69 5.44 7.99 9.78 7.99 9.78 7.99 9.78 17.05 0.72 17.05 0.72 17.33 0.44 17.78 0.44 18.06 0.72 18.06 0.72 19.57 2.23 19.57 2.23 19.84 2.51 19.84 2.96 19.57 3.24Z" fill="rgb(255,255,255)"/></svg>