<?xml version="1.0" encoding="utf-8"?>
<svg xmlns="http://www.w3.org/2000/svg"
	xmlns:xlink="http://www.w3.org/1999/xlink"
	width="20px" height="27px" viewBox="0 0 20 27">
<path fillRule="evenodd" d="M 0.32 26.84C 0.32 26.84 0.32 0.92 0.32 0.92 0.32 0.92 15.37 0.92 15.37 0.92 15.37 0.92 19.76 5.24 19.76 5.24 19.76 5.24 19.76 26.84 19.76 26.84 19.76 26.84 0.32 26.84 0.32 26.84ZM 17.6 6.25C 17.6 6.25 13.28 6.25 13.28 6.25 13.28 6.25 13.28 3.08 13.28 3.08 13.28 3.08 2.48 3.08 2.48 3.08 2.48 3.08 2.48 24.61 2.48 24.61 2.48 24.61 17.6 24.61 17.6 24.61 17.6 24.61 17.6 6.25 17.6 6.25ZM 5.72 9.56C 5.72 9.56 4.64 9.56 4.64 9.56 4.64 9.56 4.64 8.48 4.64 8.48 4.64 8.48 5.72 8.48 5.72 8.48 5.72 8.48 5.72 9.56 5.72 9.56ZM 5.72 12.8C 5.72 12.8 4.64 12.8 4.64 12.8 4.64 12.8 4.64 11.72 4.64 11.72 4.64 11.72 5.72 11.72 5.72 11.72 5.72 11.72 5.72 12.8 5.72 12.8ZM 5.72 16.04C 5.72 16.04 4.64 16.04 4.64 16.04 4.64 16.04 4.64 14.96 4.64 14.96 4.64 14.96 5.72 14.96 5.72 14.96 5.72 14.96 5.72 16.04 5.72 16.04ZM 5.72 19.28C 5.72 19.28 4.64 19.28 4.64 19.28 4.64 19.28 4.64 18.2 4.64 18.2 4.64 18.2 5.72 18.2 5.72 18.2 5.72 18.2 5.72 19.28 5.72 19.28ZM 5.72 22.52C 5.72 22.52 4.64 22.52 4.64 22.52 4.64 22.52 4.64 21.44 4.64 21.44 4.64 21.44 5.72 21.44 5.72 21.44 5.72 21.44 5.72 22.52 5.72 22.52ZM 15.44 9.56C 15.44 9.56 6.8 9.56 6.8 9.56 6.8 9.56 6.8 8.48 6.8 8.48 6.8 8.48 15.44 8.48 15.44 8.48 15.44 8.48 15.44 9.56 15.44 9.56ZM 15.44 12.8C 15.44 12.8 6.8 12.8 6.8 12.8 6.8 12.8 6.8 11.72 6.8 11.72 6.8 11.72 15.44 11.72 15.44 11.72 15.44 11.72 15.44 12.8 15.44 12.8ZM 15.44 16.04C 15.44 16.04 6.8 16.04 6.8 16.04 6.8 16.04 6.8 14.96 6.8 14.96 6.8 14.96 15.44 14.96 15.44 14.96 15.44 14.96 15.44 16.04 15.44 16.04ZM 15.44 19.28C 15.44 19.28 6.8 19.28 6.8 19.28 6.8 19.28 6.8 18.2 6.8 18.2 6.8 18.2 15.44 18.2 15.44 18.2 15.44 18.2 15.44 19.28 15.44 19.28ZM 15.44 22.52C 15.44 22.52 6.8 22.52 6.8 22.52 6.8 22.52 6.8 21.44 6.8 21.44 6.8 21.44 15.44 21.44 15.44 21.44 15.44 21.44 15.44 22.52 15.44 22.52Z" fill="rgb(255,255,255)"/></svg>