<?xml version="1.0" encoding="utf-8"?>
<svg xmlns="http://www.w3.org/2000/svg"
	xmlns:xlink="http://www.w3.org/1999/xlink"
	width="19px" height="17px" viewBox="0 0 19 17">
<path fillRule="evenodd" d="M 18.37 0.81C 18.37 0.81 0.69 0.81 0.69 0.81 0.51 0.81 0.36 0.87 0.24 0.98 0.12 1.09 0.05 1.25 0.05 1.45 0.05 1.45 0.05 3.43 0.05 3.43 0.05 3.53 0.09 3.57 0.17 3.57 0.17 3.57 9.45 8.87 9.45 8.87 9.45 8.87 9.53 8.91 9.53 8.91 9.58 8.91 9.61 8.9 9.64 8.87 9.64 8.87 18.63 3.57 18.63 3.57 18.68 3.55 18.71 3.54 18.74 3.54 18.76 3.54 18.8 3.53 18.85 3.5 18.95 3.5 19 3.45 19 3.35 19 3.35 19 1.45 19 1.45 19 1.25 18.94 1.09 18.81 0.98 18.69 0.87 18.54 0.81 18.37 0.81ZM 5.69 8.76C 5.71 8.73 5.72 8.7 5.72 8.65 5.72 8.57 5.7 8.54 5.65 8.54 5.65 8.54 0.31 5.48 0.31 5.48 0.24 5.45 0.18 5.45 0.13 5.48 0.08 5.48 0.05 5.51 0.05 5.59 0.05 5.59 0.05 13.61 0.05 13.61 0.05 13.68 0.09 13.73 0.17 13.76 0.17 13.76 0.24 13.76 0.24 13.76 0.29 13.76 0.31 13.74 0.31 13.72 0.31 13.72 5.69 8.76 5.69 8.76ZM 12.18 9.36C 12.15 9.28 12.09 9.27 11.99 9.32 11.99 9.32 9.94 10.51 9.94 10.51 9.69 10.66 9.43 10.66 9.15 10.51 9.15 10.51 7.36 9.51 7.36 9.51 7.29 9.46 7.23 9.46 7.18 9.51 7.18 9.51 0.35 15.85 0.35 15.85 0.33 15.87 0.31 15.92 0.31 15.99 0.31 16.02 0.34 16.06 0.39 16.11 0.54 16.16 0.64 16.18 0.69 16.18 0.69 16.18 18.18 16.18 18.18 16.18 18.23 16.18 18.28 16.16 18.33 16.11 18.33 16.01 18.32 15.95 18.29 15.92 18.29 15.92 12.18 9.36 12.18 9.36ZM 18.89 5.33C 18.89 5.33 18.74 5.33 18.74 5.33 18.74 5.33 13.67 8.35 13.67 8.35 13.62 8.35 13.59 8.39 13.59 8.46 13.57 8.49 13.58 8.52 13.63 8.57 13.63 8.57 18.7 14.06 18.7 14.06 18.75 14.11 18.79 14.13 18.81 14.13 18.81 14.13 18.89 14.13 18.89 14.13 18.96 14.06 19 14.01 19 13.98 19 13.98 19 5.48 19 5.48 19 5.43 18.96 5.38 18.89 5.33Z" fill="rgb(73,71,67)"/></svg>