<?xml version="1.0" encoding="utf-8"?>
<svg xmlns="http://www.w3.org/2000/svg"
	xmlns:xlink="http://www.w3.org/1999/xlink"
	width="39px" height="39px" viewBox="0 0 39 39">
<path fillRule="evenodd" d="M 37.5 34.91C 36.48 36.36 34.56 36.54 34.56 36.54 34.56 36.54 30.38 33.18 30.38 33.18 30.38 33.18 30.38 39 30.38 39 30.38 39 0 39 0 39 0 39 0 0.48 0 0.48 0 0.48 30.38 0.48 30.38 0.48 30.38 0.48 30.38 25.55 30.38 25.55 30.38 25.55 38.3 31.92 38.3 31.92 38.3 31.92 38.52 33.47 37.5 34.91ZM 27.92 31.2C 27.92 31.2 24.78 28.68 24.78 28.68 24.78 28.68 23.17 25.64 23.17 25.64 23.17 25.64 25.21 23.13 25.21 23.13 25.21 23.13 27.92 23.89 27.92 23.89 27.92 14.89 27.92 4.22 27.92 2.93 25.78 2.93 4.6 2.93 2.46 2.93 2.46 5.13 2.46 34.35 2.46 36.55 4.6 36.55 25.78 36.55 27.92 36.55 27.92 36.03 27.92 34.01 27.92 31.2ZM 22.34 10.51C 26.56 13.91 27.22 20.08 23.82 24.29 20.41 28.5 14.22 29.16 10 25.76 5.78 22.36 5.12 16.19 8.52 11.98 11.93 7.77 18.11 7.11 22.34 10.51ZM 11.42 24.01C 14.67 26.62 19.44 26.11 22.06 22.88 24.68 19.63 24.17 14.88 20.93 12.26 17.66 9.64 12.9 10.15 10.29 13.39 7.66 16.64 8.16 21.39 11.42 24.01Z" fill="rgb(59,163,219)"/></svg>